<?xml version="1.0" encoding="UTF-8"?>
<svg id="Layer_2" data-name="Layer 2" xmlns="http://www.w3.org/2000/svg" xmlns:xlink="http://www.w3.org/1999/xlink" viewBox="0 0 3000 469.73">
  <defs>
    <style>
      .cls-1 {
        fill: url(#linear-gradient);
      }
    </style>
    <linearGradient id="linear-gradient" x1="817.68" y1="617.06" x2="818.68" y2="617.06" gradientTransform="translate(-2453032 290086.56) scale(3000 -469.73)" gradientUnits="userSpaceOnUse">
      <stop offset="0" stop-color="#8f5e25"/>
      <stop offset=".5" stop-color="#fbf4a1"/>
      <stop offset="1" stop-color="#8f5e25"/>
    </linearGradient>
  </defs>
  <g id="Layer_1-2" data-name="Layer 1">
    <g id="SvgjsG3763">
      <path class="cls-1" d="m240.62,260.19c57.77,0,104.77,47,104.77,104.77s-47,104.77-104.77,104.77H104.77c-20.35,0-36.84-16.5-36.84-36.84s16.5-36.84,36.84-36.84h135.85c17.14,0,31.08-13.94,31.08-31.08s-13.94-31.08-31.08-31.08H104.77C47,333.88,0,286.88,0,229.11s47-104.77,104.77-104.77h135.85c20.35,0,36.84,16.5,36.84,36.84s-16.5,36.84-36.84,36.84H104.77c-17.14,0-31.08,13.94-31.08,31.08s13.94,31.08,31.08,31.08h135.85,0Zm439.24-135.85c20.35,0,36.84,16.5,36.84,36.84v271.7c0,20.35-16.5,36.84-36.84,36.84-18.57,0-33.89-13.75-36.43-31.62-28.13,19.89-62.42,31.62-99.42,31.62-95.23,0-172.69-77.46-172.69-172.69s77.46-172.69,172.69-172.69c37,0,71.28,11.73,99.42,31.62,2.54-17.87,17.86-31.62,36.43-31.62h0Zm-135.85,271.7c54.59,0,99.01-44.42,99.01-99.01s-44.42-99.01-99.01-99.01-99.01,44.42-99.01,99.01,44.42,99.01,99.01,99.01Zm439.24-135.85c57.77,0,104.77,47,104.77,104.77s-47,104.77-104.77,104.77h-135.85c-20.35,0-36.84-16.5-36.84-36.84s16.5-36.84,36.84-36.84h135.85c17.14,0,31.08-13.94,31.08-31.08s-13.94-31.08-31.08-31.08h-135.85c-57.77,0-104.77-47-104.77-104.77s47-104.77,104.77-104.77h135.85c20.35,0,36.84,16.5,36.84,36.84s-16.5,36.84-36.84,36.84h-135.85c-17.14,0-31.08,13.94-31.08,31.08s13.94,31.08,31.08,31.08h135.85Zm331.06,0c57.77,0,104.77,47,104.77,104.77s-47,104.77-104.77,104.77h-135.85c-20.35,0-36.84-16.5-36.84-36.84s16.5-36.84,36.84-36.84h135.85c17.14,0,31.08-13.94,31.08-31.08s-13.94-31.08-31.08-31.08h-135.85c-57.77,0-104.77-47-104.77-104.77s47-104.77,104.77-104.77h135.85c20.35,0,36.84,16.5,36.84,36.84s-16.5,36.84-36.84,36.84h-135.85c-17.14,0-31.08,13.94-31.08,31.08s13.94,31.08,31.08,31.08h135.85Zm246.56-58.68l-138.62-138.62c-14.39-14.39-14.39-37.71,0-52.1,14.4-14.39,37.72-14.39,52.1,0l112.57,112.57,112.61-112.57c14.4-14.38,37.72-14.38,52.1,0,14.38,14.39,14.38,37.71,0,52.1l-138.66,138.62c-7.19,7.19-16.62,10.78-26.05,10.78s-18.86-3.6-26.05-10.79h0Zm138.67-52.11c14.4-14.38,37.72-14.38,52.11.01,14.38,14.39,14.38,37.71,0,52.1l-127.87,127.83v103.55c0,20.35-16.5,36.84-36.84,36.84s-36.84-16.5-36.84-36.84v-103.55l-127.83-127.83c-14.39-14.39-14.39-37.71,0-52.1,14.4-14.39,37.72-14.39,52.1,0l112.57,112.57,112.61-112.57Zm329.9,110.79c57.77,0,104.77,47,104.77,104.77s-47,104.77-104.77,104.77h-135.85c-20.35,0-36.84-16.5-36.84-36.84s16.5-36.84,36.84-36.84h135.85c17.14,0,31.08-13.94,31.08-31.08s-13.94-31.08-31.08-31.08h-135.85c-57.77,0-104.77-47-104.77-104.77s47-104.77,104.77-104.77h135.85c20.35,0,36.84,16.5,36.84,36.84s-16.5,36.84-36.84,36.84h-135.85c-17.14,0-31.08,13.94-31.08,31.08s13.94,31.08,31.08,31.08h135.85Zm439.24-135.85c20.35,0,36.84,16.5,36.84,36.84v271.7c0,20.35-16.5,36.84-36.84,36.84-18.57,0-33.89-13.75-36.43-31.62-28.13,19.89-62.42,31.62-99.42,31.62-95.23,0-172.69-77.46-172.69-172.69s77.46-172.69,172.69-172.69c37,0,71.28,11.73,99.42,31.62,2.54-17.87,17.86-31.62,36.43-31.62h0Zm-135.85,271.7c54.59,0,99.01-44.42,99.01-99.01s-44.42-99.01-99.01-99.01-99.01,44.42-99.01,99.01,44.42,99.01,99.01,99.01Zm533.29-271.7c73.83,0,133.88,60.06,133.88,133.88v174.67c0,20.35-16.5,36.84-36.84,36.84s-36.84-16.5-36.84-36.84v-174.67c0-33.19-27-60.19-60.2-60.19s-60.19,27-60.19,60.19v174.67c0,20.35-16.5,36.84-36.84,36.84s-36.84-16.5-36.84-36.84v-174.67c0-33.19-27-60.19-60.19-60.19s-60.2,27-60.2,60.19v174.67c0,20.35-16.5,36.84-36.84,36.84s-36.84-16.5-36.84-36.84V161.18c0-20.35,16.5-36.84,36.84-36.84,13.18,0,24.72,6.95,31.23,17.36,19.45-11.03,41.9-17.36,65.81-17.36,38.16,0,72.62,16.08,97.03,41.79,24.41-25.71,58.87-41.79,97.03-41.79h0Z"/>
    </g>
  </g>
</svg>